<svg version="1.0" xmlns="http://www.w3.org/2000/svg"
 width="512.000000pt" height="512.000000pt" viewBox="0 0 512.000000 512.000000"
 preserveAspectRatio="xMidYMid meet">

<g transform="translate(0.000000,512.000000) scale(0.100000,-0.100000)" stroke="none">
<path d="M2370 5105 c-407 -57 -759 -292 -979 -654 -154 -254 -220 -581 -175
-878 50 -342 219 -644 479 -860 45 -37 48 -42 30 -49 -178 -62 -397 -167 -548
-262 -149 -93 -273 -191 -415 -328 -353 -338 -598 -757 -724 -1238 -26 -100
-32 -140 -32 -231 0 -95 4 -121 28 -190 65 -187 203 -324 391 -387 l70 -23
1321 0 1320 0 41 27 c62 41 88 90 88 168 0 78 -26 127 -88 168 l-41 27 -1295
5 c-1195 5 -1298 6 -1327 22 -65 35 -114 115 -114 186 0 35 47 214 86 327 70
202 214 461 353 635 133 166 330 345 511 464 356 234 720 349 1150 363 333 11
628 -47 974 -192 71 -30 98 -36 132 -32 127 14 212 140 173 258 -28 83 -86
122 -294 199 -49 19 -94 37 -98 40 -4 4 18 28 50 54 32 27 91 84 131 129 484
535 463 1356 -48 1867 -303 303 -726 444 -1150 385z m373 -406 c193 -39 354
-125 493 -263 139 -140 224 -299 264 -496 74 -359 -88 -759 -392 -968 -281
-193 -648 -223 -954 -78 -112 53 -165 89 -249 168 -239 223 -350 565 -285 878
40 197 125 356 264 496 230 229 548 327 859 263z"/>
<path d="M4102 1889 c-45 -13 -108 -80 -121 -126 -7 -23 -11 -154 -11 -325 l0
-287 -308 -3 -309 -3 -40 -27 c-62 -41 -88 -90 -88 -168 0 -78 26 -127 88
-168 l40 -27 308 -3 308 -3 3 -307 c3 -303 3 -307 27 -345 13 -21 42 -50 64
-65 34 -23 52 -27 107 -27 55 0 73 4 107 27 22 15 51 44 64 65 24 38 24 42 27
345 l3 307 307 3 c303 3 307 3 345 27 21 13 50 42 65 64 23 34 27 52 27 107 0
55 -4 73 -27 107 -15 22 -44 51 -65 64 -38 24 -42 24 -345 27 l-307 3 -3 307
c-3 303 -3 307 -27 345 -47 76 -151 113 -239 86z"/>
</g>
</svg>
