<svg version="1.0" xmlns="http://www.w3.org/2000/svg"
 width="512.000000pt" height="512.000000pt" viewBox="0 0 512.000000 512.000000"
 preserveAspectRatio="xMidYMid meet">

<g transform="translate(0.000000,512.000000) scale(0.100000,-0.100000)"
 stroke="none">
<path d="M2347 5104 c-398 -73 -711 -372 -803 -769 -17 -72 -19 -127 -19 -560
l0 -480 24 -38 c13 -21 42 -50 64 -65 34 -23 52 -27 107 -27 55 0 73 4 107 27
22 15 51 44 64 65 l24 38 5 470 c5 449 7 473 28 535 32 96 89 184 162 254 79
74 162 120 266 146 74 19 114 20 944 20 830 0 870 -1 944 -20 113 -29 190 -73
276 -160 87 -86 131 -163 160 -276 20 -75 20 -117 20 -1704 0 -1587 0 -1629
-20 -1704 -28 -111 -73 -189 -160 -276 -86 -87 -162 -131 -276 -160 -74 -19
-114 -20 -944 -20 -830 0 -870 1 -944 20 -201 51 -361 201 -428 400 -21 62
-23 86 -28 535 l-5 470 -24 38 c-13 21 -42 50 -64 65 -34 23 -52 27 -107 27
-55 0 -73 -4 -107 -27 -22 -15 -51 -44 -64 -65 l-24 -38 -3 -448 c-3 -479 2
-550 49 -690 67 -200 212 -394 378 -506 92 -63 233 -127 337 -153 l89 -23 940
0 c880 0 945 1 1020 19 242 56 472 210 605 405 59 88 125 231 152 331 l23 85
2 1674 c3 1468 2 1686 -12 1764 -69 397 -352 703 -750 810 -79 21 -94 21
-1005 23 -763 2 -939 0 -1003 -12z"/>
<path d="M2652 3349 c-69 -21 -132 -111 -132 -189 0 -73 20 -102 168 -252
l145 -148 -1349 -2 -1349 -3 -38 -24 c-21 -13 -50 -42 -65 -64 -22 -34 -27
-52 -27 -106 0 -79 25 -128 88 -169 l41 -27 1349 -3 1350 -2 -145 -148 c-123
-124 -148 -155 -158 -192 -43 -159 91 -292 250 -250 40 11 80 47 368 333 178
177 332 336 343 353 26 42 34 109 19 164 -11 40 -47 80 -333 368 -177 178
-337 332 -354 343 -38 24 -124 33 -171 18z"/>
</g>
</svg>
